# xmcd
#
# Track frame offsets: 
#        150
#        16600
#        30346
#        42172
#        53798
#        63859
#        76069
#        88068
#        100694
#        110479
#        122834
#        131569
#        140419
#        154671
#        169144
#        181852
#        193947
#        205611
#        214232
#        230047
#        242441
#        251897
#        261372
#        270653
#        286705
#
# Disc length: 4030 seconds
#
# Revision: 0
# Processed by: cddbd v1.5.2PL0 Copyright (c) Steve Scherf et al.
# Submitted via: ExactAudioCopy v0.95b3
#
DISCID=550fbc19
DTITLE=The Byrds  - There Is A Season [CD2]
DYEAR=1900
DGENRE=
TTITLE0=Eight Miles High
TTITLE1=Why (Single Version) (Mono)
TTITLE2=5D (Fifth Dimension)
TTITLE3=Wild Mountain Thyme
TTITLE4=Mr. Spaceman
TTITLE5=I See You
TTITLE6=What's Happening?!?!
TTITLE7=I Know My Rider (I Know You Rider)
TTITLE8=So You Want To Be A Rock 'N' Roll Star
TTITLE9=Have You Seen Her Face
TTITLE10=Renaissance Fair (Single Version)
TTITLE11=Time Between
TTITLE12=Everybody's Been Burned (Single Version)
TTITLE13=My Back Pages
TTITLE14=It Happens Each Day
TTITLE15=He Was A Friend Of Mine (Live) (Mono) (Unreleased)
TTITLE16=Lady Friend (Single Version) (Mono)
TTITLE17=Old John Robertson (Single Version) (Mono)
TTITLE18=Goin' Back
TTITLE19=Draft Morning
TTITLE20=Wasn't Born To Follow
TTITLE21=Tribal Gathering
TTITLE22=Dolphin's Smile
TTITLE23=Triad
TTITLE24=Universal Mind Decoder
EXTD=
EXTT0=
EXTT1=
EXTT2=
EXTT3=
EXTT4=
EXTT5=
EXTT6=
EXTT7=
EXTT8=
EXTT9=
EXTT10=
EXTT11=
EXTT12=
EXTT13=
EXTT14=
EXTT15=
EXTT16=
EXTT17=
EXTT18=
EXTT19=
EXTT20=
EXTT21=
EXTT22=
EXTT23=
EXTT24=
PLAYORDER=
